<mxfile host="app.diagrams.net" modified="2021-10-02T16:49:27.111Z" agent="5.0 (Macintosh; Intel Mac OS X 10_15_7) AppleWebKit/537.36 (KHTML, like Gecko) Chrome/94.0.4606.61 Safari/537.36" etag="d3rXFXeXZXdwkxsmycAt" version="15.2.7" type="github">
  <diagram id="R2lEEEUBdFMjLlhIrx00" name="Page-1">
    <mxGraphModel dx="1186" dy="732" grid="1" gridSize="10" guides="1" tooltips="1" connect="1" arrows="1" fold="1" page="1" pageScale="1" pageWidth="850" pageHeight="1100" math="0" shadow="0" extFonts="Permanent Marker^https://fonts.googleapis.com/css?family=Permanent+Marker">
      <root>
        <mxCell id="0" />
        <mxCell id="1" parent="0" />
        <mxCell id="rDfQFPZpApE3NvQRRTw2-1" value="Employee" style="whiteSpace=wrap;html=1;align=center;fillColor=#0A95A6;" vertex="1" parent="1">
          <mxGeometry x="420" y="110" width="100" height="40" as="geometry" />
        </mxCell>
        <mxCell id="rDfQFPZpApE3NvQRRTw2-5" style="edgeStyle=orthogonalEdgeStyle;rounded=0;orthogonalLoop=1;jettySize=auto;html=1;entryX=0.25;entryY=0;entryDx=0;entryDy=0;" edge="1" parent="1" source="rDfQFPZpApE3NvQRRTw2-3" target="rDfQFPZpApE3NvQRRTw2-1">
          <mxGeometry relative="1" as="geometry" />
        </mxCell>
        <mxCell id="rDfQFPZpApE3NvQRRTw2-3" value="EmployeeID" style="ellipse;whiteSpace=wrap;html=1;align=center;fontStyle=4;fillColor=#FFFFFF;" vertex="1" parent="1">
          <mxGeometry x="350" y="40" width="100" height="40" as="geometry" />
        </mxCell>
        <mxCell id="rDfQFPZpApE3NvQRRTw2-7" value="" style="edgeStyle=orthogonalEdgeStyle;rounded=0;orthogonalLoop=1;jettySize=auto;html=1;" edge="1" parent="1" source="rDfQFPZpApE3NvQRRTw2-6" target="rDfQFPZpApE3NvQRRTw2-1">
          <mxGeometry relative="1" as="geometry" />
        </mxCell>
        <mxCell id="rDfQFPZpApE3NvQRRTw2-6" value="Gender" style="ellipse;whiteSpace=wrap;html=1;align=center;fillColor=#FFFFFF;" vertex="1" parent="1">
          <mxGeometry x="450" y="40" width="100" height="40" as="geometry" />
        </mxCell>
        <mxCell id="rDfQFPZpApE3NvQRRTw2-9" style="edgeStyle=orthogonalEdgeStyle;rounded=0;orthogonalLoop=1;jettySize=auto;html=1;exitX=0.5;exitY=1;exitDx=0;exitDy=0;entryX=1;entryY=0.5;entryDx=0;entryDy=0;" edge="1" parent="1" source="rDfQFPZpApE3NvQRRTw2-8" target="rDfQFPZpApE3NvQRRTw2-1">
          <mxGeometry relative="1" as="geometry" />
        </mxCell>
        <mxCell id="rDfQFPZpApE3NvQRRTw2-8" value="DOB" style="ellipse;whiteSpace=wrap;html=1;align=center;fillColor=#FFFFFF;" vertex="1" parent="1">
          <mxGeometry x="540" y="70" width="100" height="40" as="geometry" />
        </mxCell>
        <mxCell id="rDfQFPZpApE3NvQRRTw2-13" style="edgeStyle=orthogonalEdgeStyle;rounded=0;orthogonalLoop=1;jettySize=auto;html=1;exitX=1;exitY=0.5;exitDx=0;exitDy=0;entryX=0;entryY=0.5;entryDx=0;entryDy=0;" edge="1" parent="1" source="rDfQFPZpApE3NvQRRTw2-10" target="rDfQFPZpApE3NvQRRTw2-1">
          <mxGeometry relative="1" as="geometry" />
        </mxCell>
        <mxCell id="rDfQFPZpApE3NvQRRTw2-10" value="Address" style="ellipse;whiteSpace=wrap;html=1;align=center;fillColor=#FFFFFF;" vertex="1" parent="1">
          <mxGeometry x="300" y="120" width="80" height="40" as="geometry" />
        </mxCell>
        <mxCell id="rDfQFPZpApE3NvQRRTw2-12" style="edgeStyle=orthogonalEdgeStyle;rounded=0;orthogonalLoop=1;jettySize=auto;html=1;exitX=0.5;exitY=1;exitDx=0;exitDy=0;entryX=0;entryY=0;entryDx=0;entryDy=0;" edge="1" parent="1" source="rDfQFPZpApE3NvQRRTw2-11" target="rDfQFPZpApE3NvQRRTw2-10">
          <mxGeometry relative="1" as="geometry">
            <Array as="points">
              <mxPoint x="250" y="100" />
              <mxPoint x="312" y="100" />
            </Array>
          </mxGeometry>
        </mxCell>
        <mxCell id="rDfQFPZpApE3NvQRRTw2-11" value="street" style="ellipse;whiteSpace=wrap;html=1;align=center;fillColor=#FFFFFF;" vertex="1" parent="1">
          <mxGeometry x="200" y="50" width="100" height="40" as="geometry" />
        </mxCell>
        <mxCell id="rDfQFPZpApE3NvQRRTw2-15" style="edgeStyle=orthogonalEdgeStyle;rounded=0;orthogonalLoop=1;jettySize=auto;html=1;exitX=1;exitY=0.5;exitDx=0;exitDy=0;entryX=0.25;entryY=1;entryDx=0;entryDy=0;" edge="1" parent="1" source="rDfQFPZpApE3NvQRRTw2-14" target="rDfQFPZpApE3NvQRRTw2-1">
          <mxGeometry relative="1" as="geometry" />
        </mxCell>
        <mxCell id="rDfQFPZpApE3NvQRRTw2-14" value="Name" style="ellipse;whiteSpace=wrap;html=1;align=center;fillColor=#FFFFFF;" vertex="1" parent="1">
          <mxGeometry x="290" y="180" width="100" height="40" as="geometry" />
        </mxCell>
        <mxCell id="rDfQFPZpApE3NvQRRTw2-27" style="edgeStyle=orthogonalEdgeStyle;rounded=0;orthogonalLoop=1;jettySize=auto;html=1;exitX=0.5;exitY=0;exitDx=0;exitDy=0;entryX=0.252;entryY=1.009;entryDx=0;entryDy=0;entryPerimeter=0;" edge="1" parent="1" source="rDfQFPZpApE3NvQRRTw2-16" target="rDfQFPZpApE3NvQRRTw2-14">
          <mxGeometry relative="1" as="geometry" />
        </mxCell>
        <mxCell id="rDfQFPZpApE3NvQRRTw2-16" value="Attribute" style="ellipse;whiteSpace=wrap;html=1;align=center;fillColor=#FFFFFF;" vertex="1" parent="1">
          <mxGeometry x="240" y="270" width="100" height="40" as="geometry" />
        </mxCell>
        <mxCell id="rDfQFPZpApE3NvQRRTw2-25" style="edgeStyle=orthogonalEdgeStyle;rounded=0;orthogonalLoop=1;jettySize=auto;html=1;exitX=1;exitY=0;exitDx=0;exitDy=0;entryX=0;entryY=0.75;entryDx=0;entryDy=0;entryPerimeter=0;" edge="1" parent="1" source="rDfQFPZpApE3NvQRRTw2-17" target="rDfQFPZpApE3NvQRRTw2-10">
          <mxGeometry relative="1" as="geometry" />
        </mxCell>
        <mxCell id="rDfQFPZpApE3NvQRRTw2-17" value="Attribute" style="ellipse;whiteSpace=wrap;html=1;align=center;fillColor=#FFFFFF;" vertex="1" parent="1">
          <mxGeometry x="140" y="160" width="100" height="40" as="geometry" />
        </mxCell>
        <mxCell id="rDfQFPZpApE3NvQRRTw2-24" style="edgeStyle=orthogonalEdgeStyle;rounded=0;orthogonalLoop=1;jettySize=auto;html=1;exitX=1;exitY=0.5;exitDx=0;exitDy=0;entryX=0;entryY=0.5;entryDx=0;entryDy=0;" edge="1" parent="1" source="rDfQFPZpApE3NvQRRTw2-18" target="rDfQFPZpApE3NvQRRTw2-10">
          <mxGeometry relative="1" as="geometry" />
        </mxCell>
        <mxCell id="rDfQFPZpApE3NvQRRTw2-18" value="Attribute" style="ellipse;whiteSpace=wrap;html=1;align=center;fillColor=#FFFFFF;" vertex="1" parent="1">
          <mxGeometry x="90" y="110" width="100" height="40" as="geometry" />
        </mxCell>
        <mxCell id="rDfQFPZpApE3NvQRRTw2-28" style="edgeStyle=orthogonalEdgeStyle;rounded=0;orthogonalLoop=1;jettySize=auto;html=1;exitX=0.5;exitY=0;exitDx=0;exitDy=0;entryX=1;entryY=1;entryDx=0;entryDy=0;" edge="1" parent="1" source="rDfQFPZpApE3NvQRRTw2-20" target="rDfQFPZpApE3NvQRRTw2-14">
          <mxGeometry relative="1" as="geometry" />
        </mxCell>
        <mxCell id="rDfQFPZpApE3NvQRRTw2-20" value="Attribute" style="ellipse;whiteSpace=wrap;html=1;align=center;fillColor=#FFFFFF;" vertex="1" parent="1">
          <mxGeometry x="360" y="270" width="100" height="40" as="geometry" />
        </mxCell>
        <mxCell id="rDfQFPZpApE3NvQRRTw2-26" style="edgeStyle=orthogonalEdgeStyle;rounded=0;orthogonalLoop=1;jettySize=auto;html=1;exitX=1;exitY=0;exitDx=0;exitDy=0;entryX=0;entryY=0.5;entryDx=0;entryDy=0;" edge="1" parent="1" source="rDfQFPZpApE3NvQRRTw2-21" target="rDfQFPZpApE3NvQRRTw2-14">
          <mxGeometry relative="1" as="geometry">
            <Array as="points">
              <mxPoint x="245" y="210" />
              <mxPoint x="270" y="210" />
              <mxPoint x="270" y="200" />
            </Array>
          </mxGeometry>
        </mxCell>
        <mxCell id="rDfQFPZpApE3NvQRRTw2-21" value="Attribute" style="ellipse;whiteSpace=wrap;html=1;align=center;fillColor=#FFFFFF;" vertex="1" parent="1">
          <mxGeometry x="160" y="220" width="100" height="40" as="geometry" />
        </mxCell>
        <mxCell id="rDfQFPZpApE3NvQRRTw2-29" value="works_for" style="shape=rhombus;perimeter=rhombusPerimeter;whiteSpace=wrap;html=1;align=center;fillColor=#A6A6A6;" vertex="1" parent="1">
          <mxGeometry x="620" y="190" width="120" height="60" as="geometry" />
        </mxCell>
        <mxCell id="rDfQFPZpApE3NvQRRTw2-30" value="manages" style="shape=rhombus;perimeter=rhombusPerimeter;whiteSpace=wrap;html=1;align=center;fillColor=#A6A6A6;" vertex="1" parent="1">
          <mxGeometry x="620" y="290" width="120" height="60" as="geometry" />
        </mxCell>
        <mxCell id="rDfQFPZpApE3NvQRRTw2-31" value="works_on" style="shape=rhombus;perimeter=rhombusPerimeter;whiteSpace=wrap;html=1;align=center;fillColor=#A6A6A6;" vertex="1" parent="1">
          <mxGeometry x="610" y="385" width="120" height="60" as="geometry" />
        </mxCell>
        <mxCell id="rDfQFPZpApE3NvQRRTw2-32" value="" style="endArrow=none;html=1;rounded=0;exitX=1;exitY=0.5;exitDx=0;exitDy=0;entryX=0;entryY=0.5;entryDx=0;entryDy=0;" edge="1" parent="1" source="rDfQFPZpApE3NvQRRTw2-29" target="rDfQFPZpApE3NvQRRTw2-36">
          <mxGeometry relative="1" as="geometry">
            <mxPoint x="750" y="190" as="sourcePoint" />
            <mxPoint x="890" y="160" as="targetPoint" />
          </mxGeometry>
        </mxCell>
        <mxCell id="rDfQFPZpApE3NvQRRTw2-33" value="1" style="resizable=0;html=1;align=right;verticalAlign=bottom;" connectable="0" vertex="1" parent="rDfQFPZpApE3NvQRRTw2-32">
          <mxGeometry x="1" relative="1" as="geometry">
            <mxPoint x="-10" as="offset" />
          </mxGeometry>
        </mxCell>
        <mxCell id="rDfQFPZpApE3NvQRRTw2-34" value="" style="endArrow=none;html=1;rounded=0;exitX=0.75;exitY=1;exitDx=0;exitDy=0;entryX=0;entryY=0.5;entryDx=0;entryDy=0;" edge="1" parent="1" source="rDfQFPZpApE3NvQRRTw2-1" target="rDfQFPZpApE3NvQRRTw2-29">
          <mxGeometry relative="1" as="geometry">
            <mxPoint x="560" y="270" as="sourcePoint" />
            <mxPoint x="720" y="270" as="targetPoint" />
          </mxGeometry>
        </mxCell>
        <mxCell id="rDfQFPZpApE3NvQRRTw2-35" value="N" style="resizable=0;html=1;align=right;verticalAlign=bottom;" connectable="0" vertex="1" parent="rDfQFPZpApE3NvQRRTw2-34">
          <mxGeometry x="1" relative="1" as="geometry">
            <mxPoint y="-10" as="offset" />
          </mxGeometry>
        </mxCell>
        <mxCell id="rDfQFPZpApE3NvQRRTw2-36" value="department" style="whiteSpace=wrap;html=1;align=center;fillColor=#0095A6;" vertex="1" parent="1">
          <mxGeometry x="900" y="110" width="100" height="40" as="geometry" />
        </mxCell>
        <mxCell id="rDfQFPZpApE3NvQRRTw2-42" style="edgeStyle=orthogonalEdgeStyle;rounded=0;orthogonalLoop=1;jettySize=auto;html=1;exitX=1;exitY=0.5;exitDx=0;exitDy=0;entryX=0.25;entryY=0;entryDx=0;entryDy=0;" edge="1" parent="1" source="rDfQFPZpApE3NvQRRTw2-37" target="rDfQFPZpApE3NvQRRTw2-36">
          <mxGeometry relative="1" as="geometry" />
        </mxCell>
        <mxCell id="rDfQFPZpApE3NvQRRTw2-37" value="Name" style="ellipse;whiteSpace=wrap;html=1;align=center;fillColor=#FFFFFF;" vertex="1" parent="1">
          <mxGeometry x="740" y="30" width="100" height="40" as="geometry" />
        </mxCell>
        <mxCell id="rDfQFPZpApE3NvQRRTw2-44" style="edgeStyle=orthogonalEdgeStyle;rounded=0;orthogonalLoop=1;jettySize=auto;html=1;exitX=0;exitY=1;exitDx=0;exitDy=0;entryX=0.75;entryY=0;entryDx=0;entryDy=0;" edge="1" parent="1" source="rDfQFPZpApE3NvQRRTw2-39" target="rDfQFPZpApE3NvQRRTw2-36">
          <mxGeometry relative="1" as="geometry" />
        </mxCell>
        <mxCell id="rDfQFPZpApE3NvQRRTw2-39" value="Locations" style="ellipse;shape=doubleEllipse;margin=3;whiteSpace=wrap;html=1;align=center;fillColor=#FFFFFF;" vertex="1" parent="1">
          <mxGeometry x="1020" y="40" width="100" height="40" as="geometry" />
        </mxCell>
        <mxCell id="rDfQFPZpApE3NvQRRTw2-43" style="edgeStyle=orthogonalEdgeStyle;rounded=0;orthogonalLoop=1;jettySize=auto;html=1;exitX=0.5;exitY=1;exitDx=0;exitDy=0;entryX=0.5;entryY=0;entryDx=0;entryDy=0;" edge="1" parent="1" source="rDfQFPZpApE3NvQRRTw2-41" target="rDfQFPZpApE3NvQRRTw2-36">
          <mxGeometry relative="1" as="geometry" />
        </mxCell>
        <mxCell id="rDfQFPZpApE3NvQRRTw2-41" value="DepartmentID" style="ellipse;whiteSpace=wrap;html=1;align=center;fontStyle=4;fillColor=#FFFFFF;" vertex="1" parent="1">
          <mxGeometry x="900" y="10" width="100" height="40" as="geometry" />
        </mxCell>
        <mxCell id="rDfQFPZpApE3NvQRRTw2-46" style="edgeStyle=orthogonalEdgeStyle;rounded=0;orthogonalLoop=1;jettySize=auto;html=1;exitX=0;exitY=0.5;exitDx=0;exitDy=0;entryX=1;entryY=0.5;entryDx=0;entryDy=0;" edge="1" parent="1" source="rDfQFPZpApE3NvQRRTw2-45" target="rDfQFPZpApE3NvQRRTw2-36">
          <mxGeometry relative="1" as="geometry" />
        </mxCell>
        <mxCell id="rDfQFPZpApE3NvQRRTw2-45" value="&lt;font style=&quot;font-size: 11px&quot;&gt;NumOfEmployess&lt;/font&gt;" style="ellipse;whiteSpace=wrap;html=1;align=center;dashed=1;fillColor=#FFFFFF;" vertex="1" parent="1">
          <mxGeometry x="1050" y="105" width="100" height="50" as="geometry" />
        </mxCell>
        <mxCell id="rDfQFPZpApE3NvQRRTw2-49" value="" style="endArrow=none;html=1;rounded=0;exitX=0.75;exitY=1;exitDx=0;exitDy=0;entryX=0;entryY=0.5;entryDx=0;entryDy=0;" edge="1" parent="1" source="rDfQFPZpApE3NvQRRTw2-1" target="rDfQFPZpApE3NvQRRTw2-30">
          <mxGeometry relative="1" as="geometry">
            <mxPoint x="620" y="390" as="sourcePoint" />
            <mxPoint x="480" y="240" as="targetPoint" />
            <Array as="points" />
          </mxGeometry>
        </mxCell>
        <mxCell id="rDfQFPZpApE3NvQRRTw2-50" value="1" style="resizable=0;html=1;align=right;verticalAlign=bottom;" connectable="0" vertex="1" parent="rDfQFPZpApE3NvQRRTw2-49">
          <mxGeometry x="1" relative="1" as="geometry">
            <mxPoint y="-10" as="offset" />
          </mxGeometry>
        </mxCell>
        <mxCell id="rDfQFPZpApE3NvQRRTw2-51" value="" style="endArrow=none;html=1;rounded=0;exitX=0;exitY=0.5;exitDx=0;exitDy=0;entryX=1;entryY=0.5;entryDx=0;entryDy=0;" edge="1" parent="1" source="rDfQFPZpApE3NvQRRTw2-36" target="rDfQFPZpApE3NvQRRTw2-30">
          <mxGeometry relative="1" as="geometry">
            <mxPoint x="715" y="340" as="sourcePoint" />
            <mxPoint x="840" y="410" as="targetPoint" />
          </mxGeometry>
        </mxCell>
        <mxCell id="rDfQFPZpApE3NvQRRTw2-52" value="N" style="resizable=0;html=1;align=right;verticalAlign=bottom;" connectable="0" vertex="1" parent="rDfQFPZpApE3NvQRRTw2-51">
          <mxGeometry x="1" relative="1" as="geometry">
            <mxPoint y="-10" as="offset" />
          </mxGeometry>
        </mxCell>
        <mxCell id="rDfQFPZpApE3NvQRRTw2-54" style="edgeStyle=orthogonalEdgeStyle;rounded=0;orthogonalLoop=1;jettySize=auto;html=1;exitX=0;exitY=0.5;exitDx=0;exitDy=0;entryX=1;entryY=1;entryDx=0;entryDy=0;" edge="1" parent="1" source="rDfQFPZpApE3NvQRRTw2-53" target="rDfQFPZpApE3NvQRRTw2-30">
          <mxGeometry relative="1" as="geometry" />
        </mxCell>
        <mxCell id="rDfQFPZpApE3NvQRRTw2-53" value="startDate" style="ellipse;whiteSpace=wrap;html=1;align=center;fillColor=#FFFFFF;" vertex="1" parent="1">
          <mxGeometry x="740" y="340" width="100" height="40" as="geometry" />
        </mxCell>
        <mxCell id="rDfQFPZpApE3NvQRRTw2-70" value="" style="edgeStyle=orthogonalEdgeStyle;rounded=0;orthogonalLoop=1;jettySize=auto;html=1;" edge="1" parent="1" source="rDfQFPZpApE3NvQRRTw2-55" target="rDfQFPZpApE3NvQRRTw2-36">
          <mxGeometry relative="1" as="geometry" />
        </mxCell>
        <mxCell id="rDfQFPZpApE3NvQRRTw2-55" value="Controls" style="shape=rhombus;perimeter=rhombusPerimeter;whiteSpace=wrap;html=1;align=center;fillColor=#B3B3B3;" vertex="1" parent="1">
          <mxGeometry x="890" y="200" width="120" height="60" as="geometry" />
        </mxCell>
        <mxCell id="rDfQFPZpApE3NvQRRTw2-56" value="" style="endArrow=none;html=1;rounded=0;exitX=0.5;exitY=1;exitDx=0;exitDy=0;entryX=0.5;entryY=0;entryDx=0;entryDy=0;" edge="1" parent="1" source="rDfQFPZpApE3NvQRRTw2-36" target="rDfQFPZpApE3NvQRRTw2-55">
          <mxGeometry relative="1" as="geometry">
            <mxPoint x="860" y="370" as="sourcePoint" />
            <mxPoint x="1020" y="280" as="targetPoint" />
          </mxGeometry>
        </mxCell>
        <mxCell id="rDfQFPZpApE3NvQRRTw2-57" value="1" style="resizable=0;html=1;align=right;verticalAlign=bottom;" connectable="0" vertex="1" parent="rDfQFPZpApE3NvQRRTw2-56">
          <mxGeometry x="1" relative="1" as="geometry">
            <mxPoint x="-10" as="offset" />
          </mxGeometry>
        </mxCell>
        <mxCell id="rDfQFPZpApE3NvQRRTw2-58" value="Project" style="whiteSpace=wrap;html=1;align=center;fillColor=#0095A6;" vertex="1" parent="1">
          <mxGeometry x="880" y="390" width="140" height="50" as="geometry" />
        </mxCell>
        <mxCell id="rDfQFPZpApE3NvQRRTw2-59" value="" style="endArrow=none;html=1;rounded=0;exitX=0.5;exitY=1;exitDx=0;exitDy=0;entryX=0.5;entryY=0;entryDx=0;entryDy=0;" edge="1" parent="1" source="rDfQFPZpApE3NvQRRTw2-55" target="rDfQFPZpApE3NvQRRTw2-58">
          <mxGeometry relative="1" as="geometry">
            <mxPoint x="1030" y="150" as="sourcePoint" />
            <mxPoint x="960" y="390" as="targetPoint" />
          </mxGeometry>
        </mxCell>
        <mxCell id="rDfQFPZpApE3NvQRRTw2-60" value="N" style="resizable=0;html=1;align=right;verticalAlign=bottom;" connectable="0" vertex="1" parent="rDfQFPZpApE3NvQRRTw2-59">
          <mxGeometry x="1" relative="1" as="geometry">
            <mxPoint x="-10" y="-5" as="offset" />
          </mxGeometry>
        </mxCell>
        <mxCell id="rDfQFPZpApE3NvQRRTw2-63" style="edgeStyle=orthogonalEdgeStyle;rounded=0;orthogonalLoop=1;jettySize=auto;html=1;exitX=0.5;exitY=0;exitDx=0;exitDy=0;entryX=0.25;entryY=1;entryDx=0;entryDy=0;" edge="1" parent="1" source="rDfQFPZpApE3NvQRRTw2-61" target="rDfQFPZpApE3NvQRRTw2-58">
          <mxGeometry relative="1" as="geometry" />
        </mxCell>
        <mxCell id="rDfQFPZpApE3NvQRRTw2-61" value="Name" style="ellipse;whiteSpace=wrap;html=1;align=center;fillColor=#FFFFFF;" vertex="1" parent="1">
          <mxGeometry x="820" y="480" width="100" height="40" as="geometry" />
        </mxCell>
        <mxCell id="rDfQFPZpApE3NvQRRTw2-64" style="edgeStyle=orthogonalEdgeStyle;rounded=0;orthogonalLoop=1;jettySize=auto;html=1;exitX=0.5;exitY=0;exitDx=0;exitDy=0;entryX=0.75;entryY=1;entryDx=0;entryDy=0;" edge="1" parent="1" source="rDfQFPZpApE3NvQRRTw2-62" target="rDfQFPZpApE3NvQRRTw2-58">
          <mxGeometry relative="1" as="geometry" />
        </mxCell>
        <mxCell id="rDfQFPZpApE3NvQRRTw2-62" value="ProjectID" style="ellipse;whiteSpace=wrap;html=1;align=center;fontStyle=4;fillColor=#FFFFFF;" vertex="1" parent="1">
          <mxGeometry x="960" y="480" width="100" height="40" as="geometry" />
        </mxCell>
        <mxCell id="rDfQFPZpApE3NvQRRTw2-65" value="" style="endArrow=none;html=1;rounded=0;exitX=1;exitY=0.5;exitDx=0;exitDy=0;entryX=0;entryY=0.5;entryDx=0;entryDy=0;" edge="1" parent="1" source="rDfQFPZpApE3NvQRRTw2-31" target="rDfQFPZpApE3NvQRRTw2-58">
          <mxGeometry relative="1" as="geometry">
            <mxPoint x="740" y="450" as="sourcePoint" />
            <mxPoint x="820" y="450" as="targetPoint" />
            <Array as="points" />
          </mxGeometry>
        </mxCell>
        <mxCell id="rDfQFPZpApE3NvQRRTw2-66" value="M" style="resizable=0;html=1;align=left;verticalAlign=bottom;" connectable="0" vertex="1" parent="rDfQFPZpApE3NvQRRTw2-65">
          <mxGeometry x="-1" relative="1" as="geometry" />
        </mxCell>
        <mxCell id="rDfQFPZpApE3NvQRRTw2-67" value="" style="resizable=0;html=1;align=right;verticalAlign=bottom;" connectable="0" vertex="1" parent="rDfQFPZpApE3NvQRRTw2-65">
          <mxGeometry x="1" relative="1" as="geometry" />
        </mxCell>
        <mxCell id="rDfQFPZpApE3NvQRRTw2-68" value="" style="endArrow=none;html=1;rounded=0;entryX=0;entryY=0.5;entryDx=0;entryDy=0;exitX=0.75;exitY=1;exitDx=0;exitDy=0;" edge="1" parent="1" source="rDfQFPZpApE3NvQRRTw2-1" target="rDfQFPZpApE3NvQRRTw2-31">
          <mxGeometry relative="1" as="geometry">
            <mxPoint x="520" y="380" as="sourcePoint" />
            <mxPoint x="680" y="380" as="targetPoint" />
          </mxGeometry>
        </mxCell>
        <mxCell id="rDfQFPZpApE3NvQRRTw2-69" value="N" style="resizable=0;html=1;align=right;verticalAlign=bottom;" connectable="0" vertex="1" parent="rDfQFPZpApE3NvQRRTw2-68">
          <mxGeometry x="1" relative="1" as="geometry">
            <mxPoint x="10" y="-15" as="offset" />
          </mxGeometry>
        </mxCell>
        <mxCell id="rDfQFPZpApE3NvQRRTw2-72" style="edgeStyle=orthogonalEdgeStyle;rounded=0;orthogonalLoop=1;jettySize=auto;html=1;exitX=0.5;exitY=0;exitDx=0;exitDy=0;entryX=0.5;entryY=1;entryDx=0;entryDy=0;" edge="1" parent="1" source="rDfQFPZpApE3NvQRRTw2-71" target="rDfQFPZpApE3NvQRRTw2-31">
          <mxGeometry relative="1" as="geometry" />
        </mxCell>
        <mxCell id="rDfQFPZpApE3NvQRRTw2-71" value="Hours" style="ellipse;whiteSpace=wrap;html=1;align=center;fillColor=#FFFFFF;" vertex="1" parent="1">
          <mxGeometry x="620" y="490" width="100" height="40" as="geometry" />
        </mxCell>
        <mxCell id="rDfQFPZpApE3NvQRRTw2-73" value="Employee" style="shape=table;startSize=30;container=1;collapsible=1;childLayout=tableLayout;fixedRows=1;rowLines=0;fontStyle=1;align=center;resizeLast=1;fillColor=#FFFFFF;" vertex="1" parent="1">
          <mxGeometry x="70" y="960" width="180" height="340" as="geometry" />
        </mxCell>
        <mxCell id="rDfQFPZpApE3NvQRRTw2-74" value="" style="shape=partialRectangle;collapsible=0;dropTarget=0;pointerEvents=0;fillColor=none;top=0;left=0;bottom=1;right=0;points=[[0,0.5],[1,0.5]];portConstraint=eastwest;" vertex="1" parent="rDfQFPZpApE3NvQRRTw2-73">
          <mxGeometry y="30" width="180" height="30" as="geometry" />
        </mxCell>
        <mxCell id="rDfQFPZpApE3NvQRRTw2-75" value="PK" style="shape=partialRectangle;connectable=0;fillColor=none;top=0;left=0;bottom=0;right=0;fontStyle=1;overflow=hidden;" vertex="1" parent="rDfQFPZpApE3NvQRRTw2-74">
          <mxGeometry width="30" height="30" as="geometry" />
        </mxCell>
        <mxCell id="rDfQFPZpApE3NvQRRTw2-76" value="EmployeeID" style="shape=partialRectangle;connectable=0;fillColor=none;top=0;left=0;bottom=0;right=0;align=left;spacingLeft=6;fontStyle=5;overflow=hidden;" vertex="1" parent="rDfQFPZpApE3NvQRRTw2-74">
          <mxGeometry x="30" width="150" height="30" as="geometry" />
        </mxCell>
        <mxCell id="rDfQFPZpApE3NvQRRTw2-77" value="" style="shape=partialRectangle;collapsible=0;dropTarget=0;pointerEvents=0;fillColor=none;top=0;left=0;bottom=0;right=0;points=[[0,0.5],[1,0.5]];portConstraint=eastwest;" vertex="1" parent="rDfQFPZpApE3NvQRRTw2-73">
          <mxGeometry y="60" width="180" height="30" as="geometry" />
        </mxCell>
        <mxCell id="rDfQFPZpApE3NvQRRTw2-78" value="" style="shape=partialRectangle;connectable=0;fillColor=none;top=0;left=0;bottom=0;right=0;editable=1;overflow=hidden;" vertex="1" parent="rDfQFPZpApE3NvQRRTw2-77">
          <mxGeometry width="30" height="30" as="geometry" />
        </mxCell>
        <mxCell id="rDfQFPZpApE3NvQRRTw2-79" value="Gender" style="shape=partialRectangle;connectable=0;fillColor=none;top=0;left=0;bottom=0;right=0;align=left;spacingLeft=6;overflow=hidden;" vertex="1" parent="rDfQFPZpApE3NvQRRTw2-77">
          <mxGeometry x="30" width="150" height="30" as="geometry" />
        </mxCell>
        <mxCell id="rDfQFPZpApE3NvQRRTw2-80" value="" style="shape=partialRectangle;collapsible=0;dropTarget=0;pointerEvents=0;fillColor=none;top=0;left=0;bottom=0;right=0;points=[[0,0.5],[1,0.5]];portConstraint=eastwest;" vertex="1" parent="rDfQFPZpApE3NvQRRTw2-73">
          <mxGeometry y="90" width="180" height="30" as="geometry" />
        </mxCell>
        <mxCell id="rDfQFPZpApE3NvQRRTw2-81" value="" style="shape=partialRectangle;connectable=0;fillColor=none;top=0;left=0;bottom=0;right=0;editable=1;overflow=hidden;" vertex="1" parent="rDfQFPZpApE3NvQRRTw2-80">
          <mxGeometry width="30" height="30" as="geometry" />
        </mxCell>
        <mxCell id="rDfQFPZpApE3NvQRRTw2-82" value="DOB" style="shape=partialRectangle;connectable=0;fillColor=none;top=0;left=0;bottom=0;right=0;align=left;spacingLeft=6;overflow=hidden;" vertex="1" parent="rDfQFPZpApE3NvQRRTw2-80">
          <mxGeometry x="30" width="150" height="30" as="geometry" />
        </mxCell>
        <mxCell id="rDfQFPZpApE3NvQRRTw2-83" value="" style="shape=partialRectangle;collapsible=0;dropTarget=0;pointerEvents=0;fillColor=none;top=0;left=0;bottom=0;right=0;points=[[0,0.5],[1,0.5]];portConstraint=eastwest;" vertex="1" parent="rDfQFPZpApE3NvQRRTw2-73">
          <mxGeometry y="120" width="180" height="30" as="geometry" />
        </mxCell>
        <mxCell id="rDfQFPZpApE3NvQRRTw2-84" value="" style="shape=partialRectangle;connectable=0;fillColor=none;top=0;left=0;bottom=0;right=0;editable=1;overflow=hidden;" vertex="1" parent="rDfQFPZpApE3NvQRRTw2-83">
          <mxGeometry width="30" height="30" as="geometry" />
        </mxCell>
        <mxCell id="rDfQFPZpApE3NvQRRTw2-85" value="street" style="shape=partialRectangle;connectable=0;fillColor=none;top=0;left=0;bottom=0;right=0;align=left;spacingLeft=6;overflow=hidden;" vertex="1" parent="rDfQFPZpApE3NvQRRTw2-83">
          <mxGeometry x="30" width="150" height="30" as="geometry" />
        </mxCell>
        <mxCell id="rDfQFPZpApE3NvQRRTw2-86" value="" style="shape=partialRectangle;collapsible=0;dropTarget=0;pointerEvents=0;fillColor=none;top=0;left=0;bottom=0;right=0;points=[[0,0.5],[1,0.5]];portConstraint=eastwest;" vertex="1" parent="rDfQFPZpApE3NvQRRTw2-73">
          <mxGeometry y="150" width="180" height="30" as="geometry" />
        </mxCell>
        <mxCell id="rDfQFPZpApE3NvQRRTw2-87" value="" style="shape=partialRectangle;connectable=0;fillColor=none;top=0;left=0;bottom=0;right=0;editable=1;overflow=hidden;" vertex="1" parent="rDfQFPZpApE3NvQRRTw2-86">
          <mxGeometry width="30" height="30" as="geometry" />
        </mxCell>
        <mxCell id="rDfQFPZpApE3NvQRRTw2-88" value="PostalCode" style="shape=partialRectangle;connectable=0;fillColor=none;top=0;left=0;bottom=0;right=0;align=left;spacingLeft=6;overflow=hidden;" vertex="1" parent="rDfQFPZpApE3NvQRRTw2-86">
          <mxGeometry x="30" width="150" height="30" as="geometry" />
        </mxCell>
        <mxCell id="rDfQFPZpApE3NvQRRTw2-89" value="" style="shape=partialRectangle;collapsible=0;dropTarget=0;pointerEvents=0;fillColor=none;top=0;left=0;bottom=0;right=0;points=[[0,0.5],[1,0.5]];portConstraint=eastwest;" vertex="1" parent="rDfQFPZpApE3NvQRRTw2-73">
          <mxGeometry y="180" width="180" height="30" as="geometry" />
        </mxCell>
        <mxCell id="rDfQFPZpApE3NvQRRTw2-90" value="" style="shape=partialRectangle;connectable=0;fillColor=none;top=0;left=0;bottom=0;right=0;editable=1;overflow=hidden;" vertex="1" parent="rDfQFPZpApE3NvQRRTw2-89">
          <mxGeometry width="30" height="30" as="geometry" />
        </mxCell>
        <mxCell id="rDfQFPZpApE3NvQRRTw2-91" value="City" style="shape=partialRectangle;connectable=0;fillColor=none;top=0;left=0;bottom=0;right=0;align=left;spacingLeft=6;overflow=hidden;" vertex="1" parent="rDfQFPZpApE3NvQRRTw2-89">
          <mxGeometry x="30" width="150" height="30" as="geometry" />
        </mxCell>
        <mxCell id="rDfQFPZpApE3NvQRRTw2-92" value="" style="shape=partialRectangle;collapsible=0;dropTarget=0;pointerEvents=0;fillColor=none;top=0;left=0;bottom=0;right=0;points=[[0,0.5],[1,0.5]];portConstraint=eastwest;" vertex="1" parent="rDfQFPZpApE3NvQRRTw2-73">
          <mxGeometry y="210" width="180" height="30" as="geometry" />
        </mxCell>
        <mxCell id="rDfQFPZpApE3NvQRRTw2-93" value="" style="shape=partialRectangle;connectable=0;fillColor=none;top=0;left=0;bottom=0;right=0;editable=1;overflow=hidden;" vertex="1" parent="rDfQFPZpApE3NvQRRTw2-92">
          <mxGeometry width="30" height="30" as="geometry" />
        </mxCell>
        <mxCell id="rDfQFPZpApE3NvQRRTw2-94" value="FirstName" style="shape=partialRectangle;connectable=0;fillColor=none;top=0;left=0;bottom=0;right=0;align=left;spacingLeft=6;overflow=hidden;" vertex="1" parent="rDfQFPZpApE3NvQRRTw2-92">
          <mxGeometry x="30" width="150" height="30" as="geometry" />
        </mxCell>
        <mxCell id="rDfQFPZpApE3NvQRRTw2-95" value="" style="shape=partialRectangle;collapsible=0;dropTarget=0;pointerEvents=0;fillColor=none;top=0;left=0;bottom=0;right=0;points=[[0,0.5],[1,0.5]];portConstraint=eastwest;" vertex="1" parent="rDfQFPZpApE3NvQRRTw2-73">
          <mxGeometry y="240" width="180" height="30" as="geometry" />
        </mxCell>
        <mxCell id="rDfQFPZpApE3NvQRRTw2-96" value="" style="shape=partialRectangle;connectable=0;fillColor=none;top=0;left=0;bottom=0;right=0;editable=1;overflow=hidden;" vertex="1" parent="rDfQFPZpApE3NvQRRTw2-95">
          <mxGeometry width="30" height="30" as="geometry" />
        </mxCell>
        <mxCell id="rDfQFPZpApE3NvQRRTw2-97" value="Initials" style="shape=partialRectangle;connectable=0;fillColor=none;top=0;left=0;bottom=0;right=0;align=left;spacingLeft=6;overflow=hidden;" vertex="1" parent="rDfQFPZpApE3NvQRRTw2-95">
          <mxGeometry x="30" width="150" height="30" as="geometry" />
        </mxCell>
        <mxCell id="rDfQFPZpApE3NvQRRTw2-98" value="" style="shape=partialRectangle;collapsible=0;dropTarget=0;pointerEvents=0;fillColor=none;top=0;left=0;bottom=0;right=0;points=[[0,0.5],[1,0.5]];portConstraint=eastwest;" vertex="1" parent="rDfQFPZpApE3NvQRRTw2-73">
          <mxGeometry y="270" width="180" height="30" as="geometry" />
        </mxCell>
        <mxCell id="rDfQFPZpApE3NvQRRTw2-99" value="" style="shape=partialRectangle;connectable=0;fillColor=none;top=0;left=0;bottom=0;right=0;editable=1;overflow=hidden;" vertex="1" parent="rDfQFPZpApE3NvQRRTw2-98">
          <mxGeometry width="30" height="30" as="geometry" />
        </mxCell>
        <mxCell id="rDfQFPZpApE3NvQRRTw2-100" value="LastName" style="shape=partialRectangle;connectable=0;fillColor=none;top=0;left=0;bottom=0;right=0;align=left;spacingLeft=6;overflow=hidden;" vertex="1" parent="rDfQFPZpApE3NvQRRTw2-98">
          <mxGeometry x="30" width="150" height="30" as="geometry" />
        </mxCell>
        <mxCell id="rDfQFPZpApE3NvQRRTw2-169" value="" style="shape=partialRectangle;collapsible=0;dropTarget=0;pointerEvents=0;fillColor=none;top=0;left=0;bottom=0;right=0;points=[[0,0.5],[1,0.5]];portConstraint=eastwest;" vertex="1" parent="rDfQFPZpApE3NvQRRTw2-73">
          <mxGeometry y="300" width="180" height="30" as="geometry" />
        </mxCell>
        <mxCell id="rDfQFPZpApE3NvQRRTw2-170" value="FK" style="shape=partialRectangle;connectable=0;fillColor=none;top=0;left=0;bottom=0;right=0;editable=1;overflow=hidden;" vertex="1" parent="rDfQFPZpApE3NvQRRTw2-169">
          <mxGeometry width="30" height="30" as="geometry" />
        </mxCell>
        <mxCell id="rDfQFPZpApE3NvQRRTw2-171" value="DepartmentID" style="shape=partialRectangle;connectable=0;fillColor=none;top=0;left=0;bottom=0;right=0;align=left;spacingLeft=6;overflow=hidden;" vertex="1" parent="rDfQFPZpApE3NvQRRTw2-169">
          <mxGeometry x="30" width="150" height="30" as="geometry" />
        </mxCell>
        <mxCell id="rDfQFPZpApE3NvQRRTw2-101" value="Department" style="shape=table;startSize=30;container=1;collapsible=1;childLayout=tableLayout;fixedRows=1;rowLines=0;fontStyle=1;align=center;resizeLast=1;fillColor=#FFFFFF;" vertex="1" parent="1">
          <mxGeometry x="800" y="1090" width="180" height="190" as="geometry" />
        </mxCell>
        <mxCell id="rDfQFPZpApE3NvQRRTw2-102" value="" style="shape=partialRectangle;collapsible=0;dropTarget=0;pointerEvents=0;fillColor=none;top=0;left=0;bottom=1;right=0;points=[[0,0.5],[1,0.5]];portConstraint=eastwest;" vertex="1" parent="rDfQFPZpApE3NvQRRTw2-101">
          <mxGeometry y="30" width="180" height="30" as="geometry" />
        </mxCell>
        <mxCell id="rDfQFPZpApE3NvQRRTw2-103" value="PK" style="shape=partialRectangle;connectable=0;fillColor=none;top=0;left=0;bottom=0;right=0;fontStyle=1;overflow=hidden;" vertex="1" parent="rDfQFPZpApE3NvQRRTw2-102">
          <mxGeometry width="30" height="30" as="geometry" />
        </mxCell>
        <mxCell id="rDfQFPZpApE3NvQRRTw2-104" value="DepartmentID" style="shape=partialRectangle;connectable=0;fillColor=none;top=0;left=0;bottom=0;right=0;align=left;spacingLeft=6;fontStyle=5;overflow=hidden;" vertex="1" parent="rDfQFPZpApE3NvQRRTw2-102">
          <mxGeometry x="30" width="150" height="30" as="geometry" />
        </mxCell>
        <mxCell id="rDfQFPZpApE3NvQRRTw2-105" value="" style="shape=partialRectangle;collapsible=0;dropTarget=0;pointerEvents=0;fillColor=none;top=0;left=0;bottom=0;right=0;points=[[0,0.5],[1,0.5]];portConstraint=eastwest;" vertex="1" parent="rDfQFPZpApE3NvQRRTw2-101">
          <mxGeometry y="60" width="180" height="30" as="geometry" />
        </mxCell>
        <mxCell id="rDfQFPZpApE3NvQRRTw2-106" value="" style="shape=partialRectangle;connectable=0;fillColor=none;top=0;left=0;bottom=0;right=0;editable=1;overflow=hidden;" vertex="1" parent="rDfQFPZpApE3NvQRRTw2-105">
          <mxGeometry width="30" height="30" as="geometry" />
        </mxCell>
        <mxCell id="rDfQFPZpApE3NvQRRTw2-107" value="Name" style="shape=partialRectangle;connectable=0;fillColor=none;top=0;left=0;bottom=0;right=0;align=left;spacingLeft=6;overflow=hidden;" vertex="1" parent="rDfQFPZpApE3NvQRRTw2-105">
          <mxGeometry x="30" width="150" height="30" as="geometry" />
        </mxCell>
        <mxCell id="rDfQFPZpApE3NvQRRTw2-175" value="" style="shape=partialRectangle;collapsible=0;dropTarget=0;pointerEvents=0;fillColor=none;top=0;left=0;bottom=0;right=0;points=[[0,0.5],[1,0.5]];portConstraint=eastwest;" vertex="1" parent="rDfQFPZpApE3NvQRRTw2-101">
          <mxGeometry y="90" width="180" height="30" as="geometry" />
        </mxCell>
        <mxCell id="rDfQFPZpApE3NvQRRTw2-176" value="" style="shape=partialRectangle;connectable=0;fillColor=none;top=0;left=0;bottom=0;right=0;editable=1;overflow=hidden;" vertex="1" parent="rDfQFPZpApE3NvQRRTw2-175">
          <mxGeometry width="30" height="30" as="geometry" />
        </mxCell>
        <mxCell id="rDfQFPZpApE3NvQRRTw2-177" value="StartDate" style="shape=partialRectangle;connectable=0;fillColor=none;top=0;left=0;bottom=0;right=0;align=left;spacingLeft=6;overflow=hidden;" vertex="1" parent="rDfQFPZpApE3NvQRRTw2-175">
          <mxGeometry x="30" width="150" height="30" as="geometry" />
        </mxCell>
        <mxCell id="rDfQFPZpApE3NvQRRTw2-108" value="" style="shape=partialRectangle;collapsible=0;dropTarget=0;pointerEvents=0;fillColor=none;top=0;left=0;bottom=0;right=0;points=[[0,0.5],[1,0.5]];portConstraint=eastwest;" vertex="1" parent="rDfQFPZpApE3NvQRRTw2-101">
          <mxGeometry y="120" width="180" height="30" as="geometry" />
        </mxCell>
        <mxCell id="rDfQFPZpApE3NvQRRTw2-109" value="FK" style="shape=partialRectangle;connectable=0;fillColor=none;top=0;left=0;bottom=0;right=0;editable=1;overflow=hidden;" vertex="1" parent="rDfQFPZpApE3NvQRRTw2-108">
          <mxGeometry width="30" height="30" as="geometry" />
        </mxCell>
        <mxCell id="rDfQFPZpApE3NvQRRTw2-110" value="LocationID" style="shape=partialRectangle;connectable=0;fillColor=none;top=0;left=0;bottom=0;right=0;align=left;spacingLeft=6;overflow=hidden;" vertex="1" parent="rDfQFPZpApE3NvQRRTw2-108">
          <mxGeometry x="30" width="150" height="30" as="geometry" />
        </mxCell>
        <mxCell id="rDfQFPZpApE3NvQRRTw2-172" value="" style="shape=partialRectangle;collapsible=0;dropTarget=0;pointerEvents=0;fillColor=none;top=0;left=0;bottom=0;right=0;points=[[0,0.5],[1,0.5]];portConstraint=eastwest;" vertex="1" parent="rDfQFPZpApE3NvQRRTw2-101">
          <mxGeometry y="150" width="180" height="30" as="geometry" />
        </mxCell>
        <mxCell id="rDfQFPZpApE3NvQRRTw2-173" value="FK" style="shape=partialRectangle;connectable=0;fillColor=none;top=0;left=0;bottom=0;right=0;editable=1;overflow=hidden;" vertex="1" parent="rDfQFPZpApE3NvQRRTw2-172">
          <mxGeometry width="30" height="30" as="geometry" />
        </mxCell>
        <mxCell id="rDfQFPZpApE3NvQRRTw2-174" value="EmployeeID" style="shape=partialRectangle;connectable=0;fillColor=none;top=0;left=0;bottom=0;right=0;align=left;spacingLeft=6;overflow=hidden;" vertex="1" parent="rDfQFPZpApE3NvQRRTw2-172">
          <mxGeometry x="30" width="150" height="30" as="geometry" />
        </mxCell>
        <mxCell id="rDfQFPZpApE3NvQRRTw2-129" value="Location" style="shape=table;startSize=30;container=1;collapsible=1;childLayout=tableLayout;fixedRows=1;rowLines=0;fontStyle=1;align=center;resizeLast=1;fillColor=#FFFFFF;" vertex="1" parent="1">
          <mxGeometry x="730" y="1380" width="180" height="100" as="geometry" />
        </mxCell>
        <mxCell id="rDfQFPZpApE3NvQRRTw2-130" value="" style="shape=partialRectangle;collapsible=0;dropTarget=0;pointerEvents=0;fillColor=none;top=0;left=0;bottom=1;right=0;points=[[0,0.5],[1,0.5]];portConstraint=eastwest;" vertex="1" parent="rDfQFPZpApE3NvQRRTw2-129">
          <mxGeometry y="30" width="180" height="30" as="geometry" />
        </mxCell>
        <mxCell id="rDfQFPZpApE3NvQRRTw2-131" value="PK" style="shape=partialRectangle;connectable=0;fillColor=none;top=0;left=0;bottom=0;right=0;fontStyle=1;overflow=hidden;" vertex="1" parent="rDfQFPZpApE3NvQRRTw2-130">
          <mxGeometry width="30" height="30" as="geometry" />
        </mxCell>
        <mxCell id="rDfQFPZpApE3NvQRRTw2-132" value="LocationID" style="shape=partialRectangle;connectable=0;fillColor=none;top=0;left=0;bottom=0;right=0;align=left;spacingLeft=6;fontStyle=5;overflow=hidden;" vertex="1" parent="rDfQFPZpApE3NvQRRTw2-130">
          <mxGeometry x="30" width="150" height="30" as="geometry" />
        </mxCell>
        <mxCell id="rDfQFPZpApE3NvQRRTw2-133" value="" style="shape=partialRectangle;collapsible=0;dropTarget=0;pointerEvents=0;fillColor=none;top=0;left=0;bottom=0;right=0;points=[[0,0.5],[1,0.5]];portConstraint=eastwest;" vertex="1" parent="rDfQFPZpApE3NvQRRTw2-129">
          <mxGeometry y="60" width="180" height="30" as="geometry" />
        </mxCell>
        <mxCell id="rDfQFPZpApE3NvQRRTw2-134" value="" style="shape=partialRectangle;connectable=0;fillColor=none;top=0;left=0;bottom=0;right=0;editable=1;overflow=hidden;" vertex="1" parent="rDfQFPZpApE3NvQRRTw2-133">
          <mxGeometry width="30" height="30" as="geometry" />
        </mxCell>
        <mxCell id="rDfQFPZpApE3NvQRRTw2-135" value="Name" style="shape=partialRectangle;connectable=0;fillColor=none;top=0;left=0;bottom=0;right=0;align=left;spacingLeft=6;overflow=hidden;" vertex="1" parent="rDfQFPZpApE3NvQRRTw2-133">
          <mxGeometry x="30" width="150" height="30" as="geometry" />
        </mxCell>
        <mxCell id="rDfQFPZpApE3NvQRRTw2-139" value="Project" style="shape=table;startSize=30;container=1;collapsible=1;childLayout=tableLayout;fixedRows=1;rowLines=0;fontStyle=1;align=center;resizeLast=1;fillColor=#FFFFFF;" vertex="1" parent="1">
          <mxGeometry x="540" y="1100" width="180" height="130" as="geometry" />
        </mxCell>
        <mxCell id="rDfQFPZpApE3NvQRRTw2-140" value="" style="shape=partialRectangle;collapsible=0;dropTarget=0;pointerEvents=0;fillColor=none;top=0;left=0;bottom=1;right=0;points=[[0,0.5],[1,0.5]];portConstraint=eastwest;" vertex="1" parent="rDfQFPZpApE3NvQRRTw2-139">
          <mxGeometry y="30" width="180" height="30" as="geometry" />
        </mxCell>
        <mxCell id="rDfQFPZpApE3NvQRRTw2-141" value="PK" style="shape=partialRectangle;connectable=0;fillColor=none;top=0;left=0;bottom=0;right=0;fontStyle=1;overflow=hidden;" vertex="1" parent="rDfQFPZpApE3NvQRRTw2-140">
          <mxGeometry width="30" height="30" as="geometry" />
        </mxCell>
        <mxCell id="rDfQFPZpApE3NvQRRTw2-142" value="ProjectID" style="shape=partialRectangle;connectable=0;fillColor=none;top=0;left=0;bottom=0;right=0;align=left;spacingLeft=6;fontStyle=5;overflow=hidden;" vertex="1" parent="rDfQFPZpApE3NvQRRTw2-140">
          <mxGeometry x="30" width="150" height="30" as="geometry" />
        </mxCell>
        <mxCell id="rDfQFPZpApE3NvQRRTw2-143" value="" style="shape=partialRectangle;collapsible=0;dropTarget=0;pointerEvents=0;fillColor=none;top=0;left=0;bottom=0;right=0;points=[[0,0.5],[1,0.5]];portConstraint=eastwest;" vertex="1" parent="rDfQFPZpApE3NvQRRTw2-139">
          <mxGeometry y="60" width="180" height="30" as="geometry" />
        </mxCell>
        <mxCell id="rDfQFPZpApE3NvQRRTw2-144" value="" style="shape=partialRectangle;connectable=0;fillColor=none;top=0;left=0;bottom=0;right=0;editable=1;overflow=hidden;" vertex="1" parent="rDfQFPZpApE3NvQRRTw2-143">
          <mxGeometry width="30" height="30" as="geometry" />
        </mxCell>
        <mxCell id="rDfQFPZpApE3NvQRRTw2-145" value="Name" style="shape=partialRectangle;connectable=0;fillColor=none;top=0;left=0;bottom=0;right=0;align=left;spacingLeft=6;overflow=hidden;" vertex="1" parent="rDfQFPZpApE3NvQRRTw2-143">
          <mxGeometry x="30" width="150" height="30" as="geometry" />
        </mxCell>
        <mxCell id="rDfQFPZpApE3NvQRRTw2-166" value="" style="shape=partialRectangle;collapsible=0;dropTarget=0;pointerEvents=0;fillColor=none;top=0;left=0;bottom=0;right=0;points=[[0,0.5],[1,0.5]];portConstraint=eastwest;" vertex="1" parent="rDfQFPZpApE3NvQRRTw2-139">
          <mxGeometry y="90" width="180" height="30" as="geometry" />
        </mxCell>
        <mxCell id="rDfQFPZpApE3NvQRRTw2-167" value="FK" style="shape=partialRectangle;connectable=0;fillColor=none;top=0;left=0;bottom=0;right=0;editable=1;overflow=hidden;" vertex="1" parent="rDfQFPZpApE3NvQRRTw2-166">
          <mxGeometry width="30" height="30" as="geometry" />
        </mxCell>
        <mxCell id="rDfQFPZpApE3NvQRRTw2-168" value="DepartmentID" style="shape=partialRectangle;connectable=0;fillColor=none;top=0;left=0;bottom=0;right=0;align=left;spacingLeft=6;overflow=hidden;" vertex="1" parent="rDfQFPZpApE3NvQRRTw2-166">
          <mxGeometry x="30" width="150" height="30" as="geometry" />
        </mxCell>
        <mxCell id="rDfQFPZpApE3NvQRRTw2-146" value="Works_on" style="shape=table;startSize=30;container=1;collapsible=1;childLayout=tableLayout;fixedRows=1;rowLines=0;fontStyle=1;align=center;resizeLast=1;fillColor=#FFFFFF;" vertex="1" parent="1">
          <mxGeometry x="300" y="1170" width="180" height="130" as="geometry" />
        </mxCell>
        <mxCell id="rDfQFPZpApE3NvQRRTw2-147" value="" style="shape=partialRectangle;collapsible=0;dropTarget=0;pointerEvents=0;fillColor=none;top=0;left=0;bottom=0;right=0;points=[[0,0.5],[1,0.5]];portConstraint=eastwest;" vertex="1" parent="rDfQFPZpApE3NvQRRTw2-146">
          <mxGeometry y="30" width="180" height="30" as="geometry" />
        </mxCell>
        <mxCell id="rDfQFPZpApE3NvQRRTw2-148" value="PK,FK1" style="shape=partialRectangle;connectable=0;fillColor=none;top=0;left=0;bottom=0;right=0;fontStyle=1;overflow=hidden;" vertex="1" parent="rDfQFPZpApE3NvQRRTw2-147">
          <mxGeometry width="60" height="30" as="geometry" />
        </mxCell>
        <mxCell id="rDfQFPZpApE3NvQRRTw2-149" value="EmployeeID" style="shape=partialRectangle;connectable=0;fillColor=none;top=0;left=0;bottom=0;right=0;align=left;spacingLeft=6;fontStyle=5;overflow=hidden;" vertex="1" parent="rDfQFPZpApE3NvQRRTw2-147">
          <mxGeometry x="60" width="120" height="30" as="geometry" />
        </mxCell>
        <mxCell id="rDfQFPZpApE3NvQRRTw2-150" value="" style="shape=partialRectangle;collapsible=0;dropTarget=0;pointerEvents=0;fillColor=none;top=0;left=0;bottom=1;right=0;points=[[0,0.5],[1,0.5]];portConstraint=eastwest;" vertex="1" parent="rDfQFPZpApE3NvQRRTw2-146">
          <mxGeometry y="60" width="180" height="30" as="geometry" />
        </mxCell>
        <mxCell id="rDfQFPZpApE3NvQRRTw2-151" value="PK,FK2" style="shape=partialRectangle;connectable=0;fillColor=none;top=0;left=0;bottom=0;right=0;fontStyle=1;overflow=hidden;" vertex="1" parent="rDfQFPZpApE3NvQRRTw2-150">
          <mxGeometry width="60" height="30" as="geometry" />
        </mxCell>
        <mxCell id="rDfQFPZpApE3NvQRRTw2-152" value="ProjectID" style="shape=partialRectangle;connectable=0;fillColor=none;top=0;left=0;bottom=0;right=0;align=left;spacingLeft=6;fontStyle=5;overflow=hidden;" vertex="1" parent="rDfQFPZpApE3NvQRRTw2-150">
          <mxGeometry x="60" width="120" height="30" as="geometry" />
        </mxCell>
        <mxCell id="rDfQFPZpApE3NvQRRTw2-153" value="" style="shape=partialRectangle;collapsible=0;dropTarget=0;pointerEvents=0;fillColor=none;top=0;left=0;bottom=0;right=0;points=[[0,0.5],[1,0.5]];portConstraint=eastwest;" vertex="1" parent="rDfQFPZpApE3NvQRRTw2-146">
          <mxGeometry y="90" width="180" height="30" as="geometry" />
        </mxCell>
        <mxCell id="rDfQFPZpApE3NvQRRTw2-154" value="" style="shape=partialRectangle;connectable=0;fillColor=none;top=0;left=0;bottom=0;right=0;editable=1;overflow=hidden;" vertex="1" parent="rDfQFPZpApE3NvQRRTw2-153">
          <mxGeometry width="60" height="30" as="geometry" />
        </mxCell>
        <mxCell id="rDfQFPZpApE3NvQRRTw2-155" value="Hours" style="shape=partialRectangle;connectable=0;fillColor=none;top=0;left=0;bottom=0;right=0;align=left;spacingLeft=6;overflow=hidden;" vertex="1" parent="rDfQFPZpApE3NvQRRTw2-153">
          <mxGeometry x="60" width="120" height="30" as="geometry" />
        </mxCell>
        <mxCell id="rDfQFPZpApE3NvQRRTw2-178" style="edgeStyle=orthogonalEdgeStyle;rounded=0;orthogonalLoop=1;jettySize=auto;html=1;exitX=0;exitY=0.5;exitDx=0;exitDy=0;entryX=1;entryY=0.5;entryDx=0;entryDy=0;" edge="1" parent="1" source="rDfQFPZpApE3NvQRRTw2-147" target="rDfQFPZpApE3NvQRRTw2-74">
          <mxGeometry relative="1" as="geometry" />
        </mxCell>
        <mxCell id="rDfQFPZpApE3NvQRRTw2-179" style="edgeStyle=orthogonalEdgeStyle;rounded=0;orthogonalLoop=1;jettySize=auto;html=1;exitX=1;exitY=0.5;exitDx=0;exitDy=0;entryX=-0.012;entryY=0.142;entryDx=0;entryDy=0;entryPerimeter=0;" edge="1" parent="1" source="rDfQFPZpApE3NvQRRTw2-147" target="rDfQFPZpApE3NvQRRTw2-139">
          <mxGeometry relative="1" as="geometry" />
        </mxCell>
        <mxCell id="rDfQFPZpApE3NvQRRTw2-180" style="edgeStyle=orthogonalEdgeStyle;rounded=0;orthogonalLoop=1;jettySize=auto;html=1;exitX=1;exitY=0.5;exitDx=0;exitDy=0;entryX=0;entryY=0.5;entryDx=0;entryDy=0;" edge="1" parent="1" source="rDfQFPZpApE3NvQRRTw2-166" target="rDfQFPZpApE3NvQRRTw2-102">
          <mxGeometry relative="1" as="geometry" />
        </mxCell>
        <mxCell id="rDfQFPZpApE3NvQRRTw2-181" style="edgeStyle=orthogonalEdgeStyle;rounded=0;orthogonalLoop=1;jettySize=auto;html=1;entryX=1;entryY=0.25;entryDx=0;entryDy=0;" edge="1" parent="1" source="rDfQFPZpApE3NvQRRTw2-108" target="rDfQFPZpApE3NvQRRTw2-129">
          <mxGeometry relative="1" as="geometry" />
        </mxCell>
        <mxCell id="rDfQFPZpApE3NvQRRTw2-182" style="edgeStyle=orthogonalEdgeStyle;rounded=0;orthogonalLoop=1;jettySize=auto;html=1;exitX=0;exitY=0.5;exitDx=0;exitDy=0;entryX=1.008;entryY=0.114;entryDx=0;entryDy=0;entryPerimeter=0;" edge="1" parent="1" source="rDfQFPZpApE3NvQRRTw2-172" target="rDfQFPZpApE3NvQRRTw2-74">
          <mxGeometry relative="1" as="geometry" />
        </mxCell>
      </root>
    </mxGraphModel>
  </diagram>
</mxfile>
